<?xml version="1.0" encoding="UTF-8"?>
<!DOCTYPE svg PUBLIC "-//W3C//DTD SVG 1.1//EN" "http://www.w3.org/Graphics/SVG/1.1/DTD/svg11.dtd">
<!-- Creator: CorelDRAW X7 -->
<svg xmlns="http://www.w3.org/2000/svg" xml:space="preserve" width="170mm" height="52mm" version="1.1" style="shape-rendering:geometricPrecision; text-rendering:geometricPrecision; image-rendering:optimizeQuality; fill-rule:evenodd; clip-rule:evenodd"
viewBox="0 0 14862 4546"
 xmlns:xlink="http://www.w3.org/1999/xlink">
 <defs>
  <style type="text/css">
   <![CDATA[
    .fil0 {fill:#77003C}
   ]]>
  </style>
 </defs>
 <g id="Layer_x0020_1">
  <metadata id="CorelCorpID_0Corel-Layer"/>
  <path class="fil0" d="M8952 2365c7,61 10,143 10,244 0,449 -78,714 -234,795 -156,82 -308,160 -458,235 -162,88 -325,210 -488,367 -339,340 -600,509 -783,509 -95,0 -170,-40 -224,-122 -54,-81 -81,-180 -81,-295 0,-177 47,-388 142,-632 75,-177 156,-330 244,-459 -210,109 -475,292 -793,550 -414,354 -661,557 -743,612 -264,190 -492,285 -681,285 -143,0 -253,-56 -331,-168 -78,-112 -117,-246 -117,-402 0,-164 41,-330 122,-500 -115,68 -227,133 -336,194 -183,108 -346,220 -488,336 -149,129 -302,258 -458,387 -183,150 -329,225 -437,225 -95,0 -177,-38 -244,-112 -75,-89 -112,-204 -112,-347 0,-231 85,-517 254,-856 88,-163 180,-326 275,-490 -122,68 -231,102 -326,102 -101,0 -188,-54 -259,-163 -71,-108 -134,-163 -188,-163 -61,0 -124,38 -189,112 -64,75 -96,133 -96,174 0,88 68,180 203,275 116,75 231,149 346,224 0,75 -17,173 -51,296 -61,-27 -122,-61 -183,-102 -108,-48 -197,-72 -264,-72 -190,0 -394,79 -611,235 -176,149 -352,299 -529,448 -196,157 -369,235 -518,235 -89,0 -165,-34 -229,-102 -65,-68 -97,-170 -97,-306 0,-149 54,-313 163,-489 27,-34 122,-153 285,-357l30 31c-237,292 -356,516 -356,672 0,177 75,265 224,265 149,0 386,-146 712,-438 305,-265 580,-408 824,-428 -27,-122 -41,-224 -41,-306 0,-136 31,-282 92,-438 74,-190 169,-285 285,-285 54,0 122,68 203,203 82,136 166,204 254,204 82,0 224,-40 428,-122 115,-47 234,-98 356,-153l-285 -81c-129,-41 -221,-62 -275,-62 -34,0 -61,11 -81,31l-407 0 0 -41c0,-95 41,-173 122,-234 61,-55 136,-82 224,-82 108,0 237,31 386,92 224,75 367,122 428,143 278,68 569,102 875,102 0,13 -21,64 -62,152 -40,89 -67,133 -81,133 -142,-27 -275,-41 -397,-41 -95,0 -234,36 -417,107 -183,72 -315,138 -396,199 -55,54 -146,214 -275,479 -163,340 -244,615 -244,826 0,74 23,134 71,178 47,44 105,66 173,66 74,0 196,-71 366,-214 122,-109 244,-217 366,-326 149,-109 390,-262 723,-459 223,-129 349,-227 376,-295 -7,-89 -17,-184 -31,-286l-325 -2079c-7,-27 -20,-66 -41,-117 -20,-51 -30,-90 -30,-117l91 -347 316 632 0 102 -153 -143 275 1774c13,81 20,176 20,285 0,306 -47,527 -142,663 -95,136 -143,288 -143,458 0,109 32,203 97,281 64,78 147,117 249,117 204,0 543,-201 1017,-601 550,-463 936,-738 1160,-826 -14,-14 -112,-88 -295,-224 -136,-95 -203,-197 -203,-306 0,-143 47,-241 142,-296 68,-34 176,-51 326,-51 122,0 366,34 732,102 414,82 688,126 824,133 0,20 -15,71 -46,153 -30,81 -52,125 -66,132 -298,116 -627,258 -987,428 68,102 102,197 102,286 0,34 -10,76 -31,127 -20,51 -40,77 -61,77 -13,0 -59,-33 -137,-97 -78,-65 -137,-121 -178,-169 -47,48 -109,160 -183,337 -88,217 -132,418 -132,601 0,163 74,245 224,245 115,0 328,-156 640,-469 143,-143 387,-302 733,-479 278,-129 424,-238 437,-326 -7,-89 -20,-184 -40,-286l-316 -2079c-7,-27 -20,-66 -40,-117 -21,-51 -31,-90 -31,-117l81 -347 326 632 0 102 -153 -143 275 1774zm-8220 -123c-169,184 -254,333 -254,449 0,88 27,132 82,132 13,0 27,-5 40,-15 14,-10 24,-19 31,-25l20 20c-68,177 -136,265 -203,265 -82,0 -122,-51 -122,-153 0,-122 45,-256 137,-402 91,-146 178,-240 259,-281l10 10zm936 571c0,82 -17,123 -51,123 -47,0 -108,-31 -183,-92 -34,81 -91,176 -173,285 -196,252 -495,404 -895,459l0 -20c332,-123 611,-296 834,-520 75,-75 153,-174 234,-296 55,-95 92,-143 112,-143 34,0 65,31 92,92 20,54 30,92 30,112zm21 -1162c0,55 -21,109 -61,163 -28,-40 -55,-61 -82,-61 -54,0 -95,75 -122,224 -20,109 -40,215 -61,316 -20,-74 -71,-186 -152,-336 -14,61 -45,92 -92,92 -34,0 -66,-15 -97,-46 -30,-31 -45,-66 -45,-107 0,-109 40,-163 122,-163 95,0 179,109 254,326 61,-380 146,-571 254,-571 55,0 82,55 82,163zm447 2243c0,20 -12,68 -35,142 -24,75 -46,123 -66,143 -116,-61 -211,-105 -285,-132 -27,102 -58,176 -92,224 -142,-82 -244,-129 -305,-143 34,-81 68,-177 102,-285 108,27 210,71 305,132 27,-68 54,-142 81,-224 122,34 221,82 295,143zm-508 -1071c-21,-40 -48,-71 -82,-91 -20,0 -37,10 -51,30 27,27 72,48 133,61zm803 -1967c-20,55 -74,133 -162,235 -21,20 -82,52 -184,96 -101,45 -179,67 -234,67 -27,0 -57,-10 -91,-31 203,-61 339,-125 407,-193 -68,-28 -143,-41 -224,-41 -14,0 -27,3 -41,10 -13,7 -27,10 -40,10 0,-190 88,-272 264,-245 95,7 197,38 305,92zm1577 -255l-30 133c-672,129 -1221,418 -1648,866l10 -163c447,-455 1003,-734 1668,-836zm-173 2518c-20,82 -64,156 -132,224 -68,68 -139,102 -214,102 -135,0 -203,-64 -203,-193 0,-55 64,-164 193,-327 -20,0 -41,0 -61,0 -68,0 -129,24 -183,72l41 -123c67,-61 128,-91 183,-91 67,0 132,6 193,20l-61 122c-41,27 -88,70 -142,128 -55,57 -82,107 -82,148 0,54 51,81 153,81 122,0 227,-54 315,-163zm82 -1774c0,143 -51,215 -153,215 -48,0 -95,-24 -142,-72 -34,95 -92,143 -173,143 -68,0 -109,-51 -123,-153 -6,-82 -10,-163 -10,-245 -20,34 -40,75 -61,123l0 -72c14,-40 31,-78 51,-112 27,-54 65,-95 112,-122 -34,258 -10,387 71,387 61,0 92,-44 92,-132 0,-34 -14,-109 -41,-225l61 -101c34,54 58,139 71,254 7,89 38,133 92,133 41,0 61,-27 61,-82l-51 -234 61 -133c54,163 82,306 82,428zm437 2304c-176,184 -265,336 -265,459 0,81 27,122 82,122 13,0 27,-5 41,-15 13,-10 23,-15 30,-15l20 10c-67,183 -135,275 -203,275 -81,0 -122,-55 -122,-163 0,-116 46,-248 137,-398 92,-149 182,-244 270,-285l10 10zm793 -713c-176,176 -264,326 -264,448 0,82 27,122 81,122 21,0 36,-5 46,-15 10,-10 19,-15 26,-15l20 20c-68,177 -136,265 -204,265 -81,0 -122,-54 -122,-163 0,-115 46,-248 138,-397 91,-150 181,-245 269,-286l10 21zm326 -51c0,142 -34,292 -102,448l-51 0c14,-183 0,-408 -40,-673l-326 -2079c-7,-27 -20,-66 -41,-117 -20,-51 -30,-90 -30,-117l91 -347 316 632 0 102 -153 -143 326 2059c6,48 10,126 10,235zm814 -1071c0,75 -22,147 -66,214 -45,68 -101,102 -168,102 -109,0 -163,-61 -163,-183 0,-27 22,-110 66,-250 44,-139 66,-256 66,-352 0,-169 -68,-305 -203,-407 0,-7 -10,-109 -31,-306 95,61 173,150 234,265 61,116 92,224 92,326 0,116 -14,211 -41,286 143,47 214,149 214,305zm-92 816c0,20 -13,66 -40,137 -28,72 -48,121 -62,148 -149,-81 -250,-129 -305,-143 27,-88 61,-183 102,-285 122,34 224,82 305,143zm51 -785c-41,-75 -112,-129 -214,-163 -47,54 -71,109 -71,163 0,75 34,112 102,112 61,0 122,-37 183,-112zm356 1733c-176,183 -264,333 -264,448 0,89 30,133 91,133 7,0 19,-5 36,-16 17,-10 25,-18 25,-25l21 20c-61,184 -129,276 -204,276 -81,0 -122,-55 -122,-164 0,-115 47,-251 142,-407 95,-143 184,-238 265,-286l10 21zm1729 -3099l-111 184c-333,68 -660,183 -982,346 -322,163 -589,354 -799,571l92 -224c203,-204 475,-391 814,-561 339,-170 668,-275 986,-316zm-1139 -173c-20,54 -75,129 -163,224 -20,20 -81,51 -183,92 -101,41 -180,61 -234,61 -20,0 -47,-7 -81,-20 197,-62 329,-126 397,-194 -68,-21 -143,-31 -224,-31 -7,0 -19,2 -36,5 -17,4 -29,5 -35,5 0,-183 84,-265 254,-244 95,14 197,47 305,102zm763 2008c-414,-95 -753,-143 -1017,-143 -136,0 -241,10 -316,31 184,108 312,190 387,244 47,48 115,109 204,184l742 -316zm132 -877c0,143 -51,214 -152,214 -41,0 -88,-27 -143,-81 -27,95 -81,142 -162,142 -75,0 -119,-51 -133,-152 0,-75 0,-153 0,-235 -20,34 -44,75 -71,122l0 -71c14,-41 31,-78 51,-112 34,-54 71,-95 112,-122 -27,251 0,377 81,377 61,0 92,-41 92,-123 0,-40 -14,-115 -41,-224l61 -102c34,48 58,133 71,255 0,88 31,133 92,133 41,0 61,-27 61,-82 0,-7 -20,-85 -61,-234l71 -133c48,163 71,306 71,428zm214 1662c-20,81 -65,154 -132,219 -68,64 -139,97 -214,97 -129,0 -193,-61 -193,-184 0,-61 61,-170 183,-326 -20,0 -41,0 -61,0 -75,0 -136,20 -183,61l41 -112c67,-68 128,-102 183,-102 67,0 135,10 203,31l-71 122c-41,20 -88,61 -143,122 -54,61 -81,112 -81,153 0,55 51,82 153,82 122,0 227,-55 315,-163zm844 469c-169,176 -254,326 -254,448 0,88 31,133 92,133 6,0 27,-14 61,-41l20 10c-68,183 -136,275 -203,275 -82,0 -123,-54 -123,-163 0,-115 48,-248 143,-397 95,-150 183,-245 264,-286l0 21zm478 -683c0,142 -34,292 -101,448l-41 0c7,-183 -14,-408 -61,-673l-315 -2079c-7,-27 -21,-66 -41,-117 -20,-51 -31,-90 -31,-117l92 -347 315 632 0 102 -142 -143 305 2059c14,48 20,126 20,235zm5138 -327c0,116 -21,221 -61,316 -61,123 -139,184 -234,184 -48,0 -107,-22 -178,-66 -72,-45 -117,-91 -138,-138 -13,34 -40,78 -81,133 -68,74 -146,112 -234,112 -68,0 -112,-17 -132,-51 -27,-55 -58,-102 -92,-143 -149,149 -274,224 -376,224 -109,0 -194,-37 -255,-112 -27,-20 -64,-81 -111,-183 -28,-68 -65,-102 -112,-102 -68,0 -126,44 -173,132 -41,68 -61,119 -61,153 0,122 176,272 529,449 13,6 13,57 0,153 -21,88 -38,135 -51,142 -68,-27 -132,-54 -193,-81 -75,-34 -140,-51 -194,-51 -190,0 -397,74 -620,224 -177,136 -356,275 -539,418 -197,149 -360,224 -489,224 -81,0 -159,-41 -234,-122 -88,-89 -132,-194 -132,-316 0,-224 115,-466 346,-724 0,-7 -14,-27 -41,-61 -27,-34 -40,-68 -40,-102l-21 0c-61,184 -119,309 -173,377 -74,88 -173,133 -295,133 -285,0 -427,-231 -427,-693 0,-75 3,-163 10,-265l10 -123c-47,68 -81,190 -101,367 -14,143 -31,282 -51,418 -41,231 -112,347 -214,347 -136,0 -241,-119 -315,-357 -55,-177 -82,-343 -82,-500 0,-142 11,-234 31,-275 0,7 7,21 20,41 -7,122 7,272 41,449 47,265 129,397 244,397 54,0 102,-44 143,-132 27,-75 40,-143 40,-204 14,-96 31,-231 51,-408 7,-75 41,-178 102,-311 61,-132 118,-226 173,-280 27,0 51,29 71,86 20,58 30,104 30,138 -61,272 -91,469 -91,591 0,95 20,184 61,265 54,102 132,153 234,153 115,0 215,-39 300,-117 85,-78 127,-172 127,-280 0,-96 -32,-245 -96,-449 -65,-204 -97,-326 -97,-367 0,7 17,-64 51,-214 6,0 23,4 51,10 101,136 196,456 284,958 21,82 68,153 143,214 74,62 149,92 224,92 88,0 156,-27 203,-81 -34,-123 -112,-340 -234,-653 -108,-292 -163,-441 -163,-448 0,-7 17,-88 51,-245 34,34 136,150 305,347l0 51c-20,0 -64,-17 -132,-51 197,462 295,751 295,866 0,122 -27,231 -81,326 -61,116 -153,174 -275,174 -129,0 -230,-45 -305,-133 -68,61 -132,149 -193,265 -88,143 -133,262 -133,357 0,61 19,119 56,173 38,54 94,82 168,82 95,0 285,-109 570,-326 380,-279 580,-425 600,-439 68,-34 122,-61 163,-81 68,-28 136,-41 203,-41 0,-34 -5,-87 -15,-158 -10,-71 -15,-111 -15,-117 0,-123 41,-259 122,-408 88,-163 183,-245 285,-245 34,0 90,65 168,194 77,129 178,194 300,194 122,0 213,-34 274,-102 122,-129 194,-204 214,-225 7,7 5,33 -5,77 -10,44 -15,76 -15,97 0,95 44,142 132,142 88,0 152,-40 193,-122 68,-136 115,-217 143,-244 13,95 47,171 101,229 55,58 112,86 173,86 34,0 75,-17 122,-50l0 -41c-74,-170 -176,-422 -305,-755 -14,-47 -34,-98 -61,-152 -7,-21 -17,-46 -30,-77 -14,-30 -21,-52 -21,-66 0,-14 14,-56 41,-128 27,-71 44,-113 51,-127 34,34 132,167 295,398 -14,20 -17,34 -10,40l-122 -51c-7,7 -11,14 -11,21 210,380 316,639 316,774zm-4487 1468c-135,320 -308,479 -518,479 -109,0 -163,-71 -163,-214 0,-34 54,-83 163,-148 108,-64 166,-120 173,-168 -75,-13 -116,-37 -122,-71 -7,-34 1,-78 25,-133 24,-54 46,-85 66,-91l-30 -51 10 -31c27,0 71,14 132,41l0 20c54,34 112,95 173,184 20,102 0,156 -61,163 -41,7 -88,3 -143,-10 -6,81 -44,149 -111,204 -68,33 -143,84 -224,152 20,21 67,31 142,31 88,0 187,-51 295,-153 75,-75 132,-146 173,-214l20 10zm-172 -3231c-197,204 -295,374 -295,510 0,95 33,142 101,142 14,0 27,-6 41,-20 13,-13 24,-20 30,-20l21 20c-75,204 -149,306 -224,306 -95,0 -142,-61 -142,-184 0,-129 50,-282 152,-458 109,-163 210,-272 305,-327l11 31zm-112 2997c-7,-27 -24,-38 -51,-31 -41,7 -68,27 -82,61 34,34 68,51 102,51 20,-34 31,-61 31,-81zm152 102c-27,-21 -64,-51 -112,-92l-10 92c21,13 48,17 82,10 13,0 27,-4 40,-10zm712 -2385c0,149 -51,224 -152,224 -41,0 -88,-27 -143,-82 -27,96 -81,143 -162,143 -75,0 -119,-51 -133,-153 0,-75 0,-153 0,-234 -20,34 -44,75 -71,122l0 -82c14,-34 31,-71 51,-112 34,-54 71,-95 112,-122 -27,251 -4,377 71,377 61,0 92,-41 92,-122 0,-34 -11,-109 -31,-224l61 -102c34,54 54,142 61,265 7,81 37,122 92,122 47,0 71,-24 71,-71 0,-7 -20,-85 -61,-235l61 -143c54,164 81,306 81,429zm-295 -795c0,149 -30,312 -91,489 13,-102 20,-207 20,-316 0,-224 -68,-398 -203,-520l20 -234c81,61 146,156 193,285 41,109 61,207 61,296zm1089 377c-21,54 -71,125 -153,214 -20,27 -81,59 -183,97 -102,37 -176,56 -224,56 -27,0 -57,-4 -91,-11 196,-61 329,-125 396,-193 -67,-27 -139,-41 -213,-41 -14,0 -29,3 -46,10 -17,7 -29,10 -36,10 0,-183 85,-265 255,-244 95,13 193,47 295,102zm488 1794c0,176 -24,326 -71,448l-81 0c13,-183 0,-408 -41,-673l-326 -2079c-7,-27 -20,-66 -40,-117 -21,-51 -31,-90 -31,-117l92 -347 315 632 0 102 -153 -143 326 2059c7,48 10,126 10,235zm376 825c-176,177 -264,326 -264,449 0,88 31,132 92,132 6,0 18,-7 35,-20 17,-14 29,-20 36,-20l10 20c-61,183 -126,275 -193,275 -89,0 -133,-58 -133,-173 0,-116 48,-248 143,-398 95,-149 183,-244 264,-285l10 20zm245 -2833c-197,203 -295,377 -295,519 0,96 30,143 91,143 14,0 29,-7 46,-20 17,-14 29,-21 36,-21l20 11c-75,210 -149,316 -224,316 -95,0 -142,-65 -142,-194 0,-129 52,-279 157,-449 105,-169 205,-278 300,-326l11 21zm1220 2670c7,54 0,105 -20,153 -20,48 -47,71 -81,71 -41,0 -72,-17 -92,-51 -47,68 -88,102 -122,102 -20,0 -49,-8 -86,-25 -38,-17 -67,-26 -87,-26 -14,0 -61,44 -142,133 -95,115 -207,207 -336,275 -109,61 -254,102 -437,122l0 -10c271,-115 508,-261 712,-438 169,-143 264,-214 284,-214 21,0 43,8 67,25 23,17 42,26 56,26 40,0 88,-41 142,-122l10 20c-20,41 -10,61 31,61 40,0 67,-30 81,-92l20 -10zm-213 -2721c0,47 -17,98 -51,153 -34,-34 -65,-51 -92,-51 -47,0 -85,68 -112,203 -20,102 -37,208 -50,316 -28,-81 -79,-190 -153,-326 -14,61 -44,92 -92,92 -27,0 -56,-15 -86,-46 -31,-30 -46,-66 -46,-107 0,-109 37,-163 112,-163 95,0 176,109 244,326 61,-373 143,-560 244,-560 55,0 82,54 82,163zm163 897c-21,54 -72,129 -153,224 -20,14 -81,42 -183,87 -102,44 -177,66 -224,66 -20,0 -47,-7 -81,-21 189,-61 318,-125 386,-193 -61,-21 -132,-31 -213,-31 -14,0 -28,2 -41,5 -14,4 -27,5 -41,5 0,-183 85,-261 255,-234 94,7 193,37 295,92zm935 1977l-50 163c-435,88 -787,275 -1058,561l40 -184c285,-299 641,-479 1068,-540zm-234 -326c0,27 -13,76 -40,148 -27,71 -48,117 -61,137 -150,-75 -251,-119 -305,-132 27,-89 61,-187 101,-296 122,34 224,82 305,143z"/>
 </g>
</svg>
