<?xml version="1.0" encoding="UTF-8"?>
<!DOCTYPE svg PUBLIC "-//W3C//DTD SVG 1.1//EN" "http://www.w3.org/Graphics/SVG/1.1/DTD/svg11.dtd">
<!-- Creator: CorelDRAW X7 -->
<svg xmlns="http://www.w3.org/2000/svg" xml:space="preserve" width="100mm" height="100mm" version="1.1" style="shape-rendering:geometricPrecision; text-rendering:geometricPrecision; image-rendering:optimizeQuality; fill-rule:evenodd; clip-rule:evenodd"
viewBox="0 0 595 595"
 xmlns:xlink="http://www.w3.org/1999/xlink">
 <defs>
  <style type="text/css">
   <![CDATA[
    .fil0 {fill:#9E0050}
   ]]>
  </style>
 </defs>
 <g id="Layer_x0020_1">
  <metadata id="CorelCorpID_0Corel-Layer"/>
  <path class="fil0" d="M298 0c164,0 297,133 297,298 0,164 -133,297 -297,297 -165,0 -298,-133 -298,-297 0,-165 133,-298 298,-298zm119 360l-170 0c-3,0 -5,0 -6,-1 -4,-2 -4,-11 4,-11l175 0c7,0 11,12 -3,12zm-305 -171l0 129c0,7 4,13 7,18 10,13 19,6 18,18l0 24c1,6 4,7 8,7 2,0 7,-6 10,-8l24 -25c5,-4 3,-4 9,-4l0 -109c0,-11 5,-21 12,-29 4,-3 7,-6 12,-8 4,-2 10,-5 16,-5l186 0c0,-11 0,-19 -9,-28 -5,-5 -12,-10 -21,-10l-242 0c-15,0 -30,15 -30,30zm233 121l-101 0c-8,0 -7,-12 -1,-12l102 0c8,0 7,12 0,12zm98 -50l-197 0c-11,0 -10,-13 -1,-13l200 0c7,0 10,13 -2,13zm-243 -22l0 132c0,5 3,12 6,15 2,4 6,7 10,9 9,5 22,4 36,4 52,0 107,1 159,0 5,0 4,1 7,3l17 18c1,1 1,2 2,3 2,2 3,3 5,5 4,4 9,12 15,7 1,-1 2,-2 2,-4 1,-3 1,-19 1,-24 0,-12 1,-7 10,-14 7,-5 13,-14 13,-23l0 -131c0,-15 -15,-29 -31,-29l-221 0c-16,0 -31,14 -31,29z"/>
 </g>
</svg>
