<?xml version="1.0" encoding="UTF-8"?>
<!DOCTYPE svg PUBLIC "-//W3C//DTD SVG 1.1//EN" "http://www.w3.org/Graphics/SVG/1.1/DTD/svg11.dtd">
<!-- Creator: CorelDRAW X7 -->
<svg xmlns="http://www.w3.org/2000/svg" xml:space="preserve" width="100mm" height="100mm" version="1.1" style="shape-rendering:geometricPrecision; text-rendering:geometricPrecision; image-rendering:optimizeQuality; fill-rule:evenodd; clip-rule:evenodd"
viewBox="0 0 991 991"
 xmlns:xlink="http://www.w3.org/1999/xlink">
 <defs>
  <style type="text/css">
   <![CDATA[
    .fil0 {fill:#9E0050}
   ]]>
  </style>
 </defs>
 <g id="Layer_x0020_1">
  <metadata id="CorelCorpID_0Corel-Layer"/>
  <path class="fil0" d="M496 0c273,0 495,222 495,496 0,273 -222,495 -495,495 -274,0 -496,-222 -496,-495 0,-274 222,-496 496,-496zm-114 244c-2,-9 -12,-16 -22,-16 -11,0 -20,5 -29,12 -1,1 -2,2 -3,3 -9,7 -16,16 -22,24l-6 8c-8,11 -14,21 -21,32l-15 26c-1,3 -3,7 -4,9 -9,-1 -17,0 -24,5 -4,4 -8,9 -10,14 -5,11 -2,20 -2,32 0,39 -7,52 -18,84 -7,22 -17,47 -17,71 0,24 2,37 11,57 5,13 12,26 16,40 7,26 6,59 -6,84 -2,6 -6,13 -1,18 5,6 14,2 18,-4 10,-18 15,-42 15,-63 0,-28 -7,-49 -17,-69 -1,-3 -2,-4 -3,-7 -14,-35 -16,-55 -5,-92 5,-17 11,-32 16,-49 1,-2 2,-5 3,-8 11,-33 7,-46 8,-78 0,-26 25,-14 34,6 5,11 6,26 6,41 0,8 2,14 0,22 -1,6 0,16 -1,23 0,6 -1,13 -3,20l-4 19c0,5 4,10 8,11 5,1 9,1 14,2 27,9 41,35 41,66l0 29c2,10 15,11 19,2 3,-6 2,-25 2,-32 0,-29 -11,-59 -35,-75 -5,-3 -18,-10 -26,-10 4,-9 7,-52 7,-63 0,-13 -2,-40 -5,-52 -2,-7 -5,-14 -8,-20 -3,-4 -10,-13 -14,-14 5,-10 9,-20 15,-30 10,-19 42,-74 63,-74 8,0 7,5 7,12 0,11 -7,25 -11,34 -9,18 -41,80 -41,97 0,3 1,4 2,5 2,2 3,3 6,4 4,1 8,-1 11,-5 3,-5 6,-18 9,-24 11,-28 25,-53 37,-80 2,-4 3,-8 5,-12 5,-11 21,-32 35,-32 10,0 12,1 12,11 0,2 0,4 -1,6 -1,3 -2,1 -3,5l-3 11c-6,13 -15,24 -21,37 -3,7 -6,13 -9,20l-19 40c-2,5 -17,37 -17,40 0,5 5,10 10,10 9,0 11,-9 14,-15l37 -80c5,-14 14,-26 20,-39 4,-8 4,-17 13,-17 3,0 5,2 6,4 7,11 -8,38 -13,48 -10,19 -19,39 -26,58 -5,12 -24,54 -24,64 0,6 6,8 11,8 7,0 9,-7 11,-11 10,-27 21,-53 32,-79 3,-6 10,-27 18,-27 8,0 -1,29 -1,32 -2,9 -4,18 -7,26 -9,40 -22,78 -28,119l-3 29c0,16 -1,45 -4,60 -1,5 -2,9 -4,13 -10,32 -28,59 -43,88 -6,11 -18,36 -18,47 0,12 17,14 20,3 2,-4 2,-8 4,-13 6,-16 14,-30 21,-45 16,-31 34,-58 41,-93l3 -30c0,-20 2,-41 4,-61 8,-54 35,-117 35,-170 0,-12 -3,-22 -16,-25 3,-13 9,-11 9,-38 0,-12 -7,-21 -17,-25 -4,-2 -8,-2 -13,-2 0,-9 -2,-18 -8,-23 -13,-10 -29,-8 -43,-1 -3,2 -12,11 -15,12zm161 7l0 5c-16,0 -30,11 -30,27 0,8 1,17 4,24 1,4 4,10 5,14 -23,5 -15,43 -13,59 8,46 25,89 32,135 3,23 4,46 6,69 1,25 4,38 14,61l22 44c1,2 2,2 3,5l6 10c7,13 13,27 18,41 3,8 3,20 15,20 2,0 5,-1 6,-2 1,-2 3,-5 3,-7 0,-13 -15,-46 -22,-58 -12,-20 -32,-58 -38,-76 -7,-20 -6,-31 -8,-50l-2 -38c-1,-9 -2,-20 -4,-29 -3,-18 -7,-36 -12,-53l-14 -51c-1,-6 -16,-60 -8,-60 9,0 15,19 18,26 2,5 4,10 7,16l19 47c3,6 4,10 7,16 2,7 4,12 13,12 5,0 8,-5 8,-10 0,-4 -5,-17 -7,-21 -5,-13 -11,-26 -16,-39 -2,-7 -6,-14 -8,-20l-18 -39c-5,-10 -16,-30 -16,-41 0,-9 7,-16 14,-10 3,2 5,11 7,15 2,3 3,6 5,9 5,10 10,16 15,29l28 61c4,6 6,13 10,20 3,6 5,15 13,15 6,0 11,-5 11,-10 0,-4 -19,-43 -23,-50 -6,-12 -22,-52 -27,-59l-11 -19c-4,-7 -7,-11 -9,-20 -1,-4 -1,-2 -2,-4 -2,-3 -5,-18 7,-18 13,0 21,8 28,17 2,2 2,2 4,4 2,4 5,7 7,10 3,6 7,17 10,24 3,7 7,15 11,22 9,19 18,38 25,58 1,4 3,10 4,13 5,9 19,5 19,-6 0,-13 -26,-65 -33,-81 -7,-14 -19,-35 -19,-51 0,-16 18,-6 24,-1 8,7 15,15 21,24l33 56c2,4 7,13 8,16 -5,1 -11,10 -14,14 -16,26 -14,75 -11,104 0,6 3,27 4,31 -7,0 -20,7 -25,10 -7,5 -13,10 -18,18 -17,24 -17,45 -17,74 0,4 0,12 1,15 4,9 17,8 20,-1 3,-9 -13,-78 39,-95 7,-3 23,-1 23,-13 0,-4 -3,-14 -4,-19 -4,-19 -2,-26 -4,-43 -1,-7 0,-15 0,-22 1,-20 1,-42 15,-55 10,-10 26,-13 26,7 0,30 -4,47 7,77l9 25c13,39 25,69 11,110l-8 21c-21,41 -24,89 -3,132 0,0 1,1 1,2 6,9 20,8 20,-5 0,-3 -3,-7 -4,-9 -12,-25 -13,-58 -6,-84 4,-14 11,-27 16,-40 24,-56 7,-91 -11,-145 -9,-27 -12,-34 -12,-66 0,-5 0,-7 1,-11 0,-10 0,-15 -3,-22 -4,-10 -13,-21 -28,-21 -4,0 -3,1 -7,1 -1,-7 -13,-26 -18,-34 -8,-14 -16,-27 -26,-40l-12 -15c-13,-13 -41,-37 -58,-20 -3,3 -6,7 -8,11 -2,-1 -4,-3 -6,-6 -15,-11 -35,-18 -52,-5 -4,3 -8,10 -8,18z"/>
 </g>
</svg>
