<?xml version="1.0" encoding="UTF-8"?>
<!DOCTYPE svg PUBLIC "-//W3C//DTD SVG 1.1//EN" "http://www.w3.org/Graphics/SVG/1.1/DTD/svg11.dtd">
<!-- Creator: CorelDRAW X7 -->
<svg xmlns="http://www.w3.org/2000/svg" xml:space="preserve" width="100mm" height="100mm" version="1.1" style="shape-rendering:geometricPrecision; text-rendering:geometricPrecision; image-rendering:optimizeQuality; fill-rule:evenodd; clip-rule:evenodd"
viewBox="0 0 744 744"
 xmlns:xlink="http://www.w3.org/1999/xlink">
 <defs>
  <style type="text/css">
   <![CDATA[
    .fil0 {fill:#9E0050}
   ]]>
  </style>
 </defs>
 <g id="Layer_x0020_1">
  <metadata id="CorelCorpID_0Corel-Layer"/>
  <path class="fil0" d="M372 0c205,0 372,167 372,372 0,205 -167,372 -372,372 -205,0 -372,-167 -372,-372 0,-205 167,-372 372,-372zm37 317c0,12 -1,26 -2,37l-1 22c-1,10 0,19 -1,29 -1,10 -2,20 -2,30l-3 43c-1,12 -3,29 -4,44 0,3 0,3 0,7 -1,23 -5,83 9,98 4,5 9,7 13,8l4 0c4,-1 9,-3 13,-8 12,-12 10,-56 10,-75 0,-18 -2,-28 -2,-44l-4 -43c0,-5 0,-10 -1,-15 0,-10 -2,-17 -2,-29 0,-3 0,-4 0,-7l-6 -97c0,-8 6,-20 12,-26 5,-4 4,-2 11,-8 18,-19 24,-47 22,-73 -2,-29 -11,-65 -29,-86 -7,-10 -15,-15 -28,-15 -18,0 -33,25 -38,39 -7,14 -10,29 -13,45 -1,5 -2,12 -2,17 -1,25 2,44 13,61 6,11 11,14 19,20 6,5 12,16 12,26zm-141 -51c0,18 9,16 20,27 8,8 10,19 9,30 0,7 0,13 -1,20l-7 118c-2,13 -2,25 -3,38 -1,3 -1,7 -1,10l-1 9c-1,23 -4,88 8,103 15,16 33,8 38,-16 2,-8 5,-50 3,-63 0,-4 0,-10 0,-15 -2,-9 -1,-20 -2,-30 -1,-9 -2,-19 -3,-29 0,-4 -1,-10 -1,-14 -1,-13 -2,-25 -3,-37l-4 -67c0,-22 -7,-43 10,-60 7,-6 18,-7 18,-18l-1 -37c0,-4 -1,-5 -1,-9 0,-4 0,-7 0,-10 0,-4 0,-5 0,-9 0,-3 0,-6 0,-10 0,-4 -1,-6 -1,-9l-1 -28c0,-4 0,-6 0,-9l-2 -28c0,-2 -1,-6 -1,-8l-3 14c0,3 0,6 0,8 0,3 -1,5 -1,8 0,8 -1,17 -1,25 0,2 0,5 0,8 0,6 -1,10 -1,16l0 16c-1,8 0,19 0,26 -1,3 -3,5 -6,5 -5,0 -4,-9 -4,-14 0,-6 0,-10 0,-16 0,-12 -1,-22 -1,-33 0,-4 -1,-5 -1,-8 0,-3 1,-6 0,-9 0,-4 0,-4 0,-8 0,-2 0,-6 0,-8 -1,-5 -1,-28 -4,-30l-5 95c-1,12 3,31 -5,31 -6,0 -5,-7 -5,-13 0,-6 0,-11 0,-16 0,-12 -1,-22 -1,-34l-1 -24c0,-3 0,-6 0,-9 -1,-4 -1,-11 -1,-15 -1,-5 0,-13 -3,-15l-5 88c0,3 0,4 0,7 -1,8 1,18 0,26 -1,2 -2,5 -5,5 -6,0 -5,-7 -5,-13 0,-6 0,-11 0,-16 0,-12 -1,-22 -1,-34 0,-4 0,-5 -1,-8 0,-2 0,-6 0,-8 0,-4 0,-5 0,-8 0,-3 0,-6 0,-9l-2 -23c0,-4 0,-6 -2,-7 -4,7 -5,91 -6,114 0,12 -3,24 -3,37z"/>
 </g>
</svg>
