<?xml version="1.0" encoding="UTF-8"?>
<!DOCTYPE svg PUBLIC "-//W3C//DTD SVG 1.1//EN" "http://www.w3.org/Graphics/SVG/1.1/DTD/svg11.dtd">
<!-- Creator: CorelDRAW X7 -->
<svg xmlns="http://www.w3.org/2000/svg" xml:space="preserve" width="100mm" height="100mm" version="1.1" style="shape-rendering:geometricPrecision; text-rendering:geometricPrecision; image-rendering:optimizeQuality; fill-rule:evenodd; clip-rule:evenodd"
viewBox="0 0 425 425"
 xmlns:xlink="http://www.w3.org/1999/xlink">
 <defs>
  <style type="text/css">
   <![CDATA[
    .fil0 {fill:#9E0050}
   ]]>
  </style>
 </defs>
 <g id="Layer_x0020_1">
  <metadata id="CorelCorpID_0Corel-Layer"/>
  <path class="fil0" d="M213 0c117,0 212,95 212,213 0,117 -95,212 -212,212 -118,0 -213,-95 -213,-212 0,-118 95,-213 213,-213zm-106 317c1,0 2,-1 3,-1 2,-1 3,-1 4,-1 3,-1 5,-2 8,-2l44 -13c5,-1 10,-2 15,-4 5,-1 10,-3 15,-4 11,-3 14,-3 24,-4 3,-1 6,0 9,-1 3,0 20,0 23,0 2,1 3,0 5,0 1,1 3,1 4,1 1,0 3,0 5,0 20,3 59,1 76,-12 5,-4 8,-9 8,-16 -1,0 -1,0 -2,1 0,0 -1,0 -2,1 -7,4 -22,7 -31,7 0,-7 -1,-10 -4,-16 -1,-3 -3,-7 -5,-10l-5 -5c-2,-2 -1,-2 -5,-5 -1,-1 -2,-2 -3,-3l-5 -4c-2,-2 -4,-3 -6,-5 -2,-1 -3,-3 -5,-4l-29 -23c-2,-2 -5,-5 -7,-8 0,-1 -1,-2 -1,-4 3,0 5,-5 3,-7 -2,-2 -2,-1 -3,-2 5,-1 11,-2 14,-5 2,-1 4,-2 4,-3 -1,0 -3,1 -7,2 -17,4 -34,-10 -26,-29 0,-1 1,-2 1,-3 -2,1 -5,6 -7,9 -1,4 -2,8 -1,14 0,4 3,8 6,10 3,3 6,4 10,5 2,0 1,-1 2,0 -5,1 -5,8 -1,9 0,2 -3,6 -4,7 -8,14 -14,20 -28,29 -10,6 -16,9 -26,17 -9,7 -16,17 -18,29 -1,8 0,14 2,20 -2,0 -7,2 -8,3 0,-5 -1,-23 0,-27 2,-5 6,-13 9,-18 2,-2 3,-4 5,-6 4,-3 3,-4 8,-8 2,-1 2,-1 4,-2 0,-4 -1,-7 -1,-10 -18,0 -36,0 -54,0 0,29 -1,57 -1,85 -3,3 -6,5 -8,8 -2,1 -3,1 -5,3l-3 5 -1 0 1 0 0 0zm130 -165l-8 3c1,1 6,2 9,3 0,2 -1,5 0,7 0,0 1,-1 1,-1 1,-2 3,-5 4,-5l7 1c0,0 1,0 2,0l-6 -6c1,-2 4,-5 5,-7l-8 3 -6 -5c0,4 0,5 0,7zm-94 -73c0,5 3,7 6,8 -1,3 -1,6 -1,9 -5,0 -12,4 -16,8 -3,3 -3,3 -5,8 -4,7 -3,17 1,23l46 0c0,0 1,-1 1,-2 4,-8 3,-14 0,-22 0,-2 -3,-5 -4,-7 -4,-4 -11,-8 -17,-8l0 -8c1,0 5,0 7,-1 -14,0 -17,-11 -10,-17 1,-1 2,-1 3,-2 -5,1 -11,6 -11,11zm-24 242c3,0 13,2 15,2 2,-1 4,-1 6,-2 7,-1 14,-2 22,-2 5,0 7,-1 11,0l24 0c24,0 44,-7 67,-15 3,-1 6,-2 10,-3 4,-1 7,-1 13,-1 -2,-1 -21,-5 -22,-6 -11,-2 -18,-2 -30,-2 -36,0 -69,14 -102,25 -2,0 -5,1 -7,2 -1,0 -6,2 -7,2zm4 -176l7 0 0 56c-4,0 -10,-1 -11,6 0,3 3,6 7,6l51 0c2,0 3,-1 4,-2 4,-3 3,-10 -5,-10l-2 0 0 -56 5 0 0 -8 -56 0 0 8z"/>
 </g>
</svg>
