<?xml version="1.0" encoding="UTF-8"?>
<!DOCTYPE svg PUBLIC "-//W3C//DTD SVG 1.1//EN" "http://www.w3.org/Graphics/SVG/1.1/DTD/svg11.dtd">
<!-- Creator: CorelDRAW X7 -->
<svg xmlns="http://www.w3.org/2000/svg" xml:space="preserve" width="350mm" height="250mm" version="1.1" style="shape-rendering:geometricPrecision; text-rendering:geometricPrecision; image-rendering:optimizeQuality; fill-rule:evenodd; clip-rule:evenodd"
viewBox="0 0 11513 8224"
 xmlns:xlink="http://www.w3.org/1999/xlink">
 <defs>
  <style type="text/css">
   <![CDATA[
    .fil0 {fill:#9E0050;fill-rule:nonzero}
   ]]>
  </style>
 </defs>
 <g id="Layer_x0020_1">
  <metadata id="CorelCorpID_0Corel-Layer"/>
  <path class="fil0" d="M651 8224c-27,0 -55,-2 -84,-7 -168,-32 -297,-107 -386,-227 -121,-160 -181,-340 -181,-544 0,-263 98,-530 296,-799 54,-70 114,-136 181,-195 298,-281 741,-421 1327,-421l87 0 63 3c57,-180 113,-359 165,-537 76,-268 157,-527 242,-777 59,-168 129,-325 213,-470 114,-201 271,-302 474,-302 41,0 96,8 166,23 70,14 132,61 189,143 43,76 65,211 65,403 0,210 -29,578 -87,1107l-41 417c67,-11 133,-22 200,-37 18,-4 35,-7 50,-7 20,0 43,7 67,19 24,12 35,32 35,59 0,19 -6,38 -18,59 -25,35 -142,66 -352,94 -15,161 -28,322 -37,484l-3 62c-13,125 -20,246 -20,364 0,216 26,353 78,414 11,13 24,18 41,18 54,0 114,-64 180,-192 115,-220 253,-554 415,-1002 27,-72 53,-142 78,-208 -17,-184 -29,-364 -34,-542 -9,-177 -6,-293 6,-345 25,-61 73,-97 147,-109 56,-9 109,2 160,31 38,25 61,68 72,130 6,41 8,71 5,91l2 18c27,-162 59,-309 97,-441 71,-270 204,-421 396,-452 204,-33 347,71 430,309 31,105 55,207 71,303 9,56 22,152 41,293 29,-131 70,-259 120,-386 75,-173 178,-270 309,-291 181,-30 302,51 362,240l6 40c19,115 33,289 41,522 11,326 33,585 64,778l23 118c14,82 48,118 99,110 52,-8 100,-59 146,-152 63,-130 109,-264 139,-403 41,-163 70,-311 86,-444l2 -6c9,-54 17,-95 24,-123 8,-115 31,-240 71,-373 20,-79 52,-168 100,-268 75,-163 204,-245 383,-245 34,0 84,6 154,17 68,12 136,49 202,114 30,-106 90,-159 183,-159 61,0 119,22 172,66 27,25 41,54 41,87 -2,32 -7,63 -16,90 -80,267 -148,564 -200,892 -24,155 -37,296 -37,422 0,92 15,179 44,261 11,42 36,63 77,63 24,-2 46,-14 69,-34 81,-91 153,-196 216,-314l150 -308 155 -360 11 -31c-131,-105 -197,-268 -197,-489 0,-111 20,-225 57,-338 91,-259 210,-390 358,-390 27,0 56,5 88,13 84,26 127,107 127,246 0,162 -59,397 -177,706l18 0c85,0 170,-34 253,-100 72,-58 131,-115 174,-171l3 0c79,-108 157,-162 234,-162 21,0 43,4 69,13 87,33 131,102 131,205 0,33 -5,71 -13,112 -123,479 -199,881 -231,1207 -5,39 -5,78 -5,117 0,48 1,96 8,143 15,70 37,106 69,106 35,0 72,-26 109,-78 60,-83 252,-689 475,-1057 214,-354 391,-451 616,267 187,596 -405,1317 -961,1498 -133,43 -332,75 -599,96 -265,21 -623,22 -1074,2 -961,-56 -1738,-64 -2332,-23 -593,41 -1000,190 -1219,444 -55,64 -120,100 -196,104 -28,2 -55,-1 -82,-10 -43,-13 -74,-39 -95,-76 -17,-34 -19,-72 -6,-113 7,-44 41,-102 101,-175 60,-72 181,-143 364,-212 182,-69 462,-119 841,-150 379,-32 891,-30 1536,7 660,38 1187,54 1583,48 396,-6 694,-24 896,-55 654,-100 1266,-792 1042,-1396 -223,-598 -344,61 -493,418 -93,251 -179,434 -257,548 -70,103 -170,155 -299,155 -196,0 -308,-110 -339,-329 -11,-87 -16,-174 -16,-258 0,-183 22,-412 68,-690 11,-87 27,-171 47,-251 -56,48 -136,95 -239,139 -47,19 -95,28 -147,28 -51,0 -104,-9 -160,-27 -21,70 -58,170 -111,300 -144,350 -275,604 -392,759 -83,108 -181,161 -292,161 -105,0 -200,-44 -288,-134 -89,-119 -134,-296 -134,-528l0 -92c0,-52 2,-103 7,-153 -46,120 -121,210 -225,271 -39,18 -79,27 -118,27 -41,0 -83,-9 -124,-27 -65,-34 -116,-82 -154,-146 -32,182 -81,371 -147,567 -86,256 -199,395 -340,418 -56,9 -118,-2 -189,-30 -148,-60 -244,-226 -288,-498 -33,-198 -50,-429 -50,-691 -2,-182 -11,-322 -27,-418 -16,-100 -47,-146 -92,-139 -117,19 -207,435 -270,1247 -5,36 -35,59 -90,68l-38 3c-94,2 -148,-19 -162,-65 -14,-101 -29,-217 -44,-349 -26,-231 -50,-416 -72,-555 -24,-150 -53,-285 -88,-405 -38,-132 -85,-194 -141,-187 -199,32 -326,668 -380,1909l1 9c5,31 -7,56 -35,76 -39,29 -84,48 -136,57 -64,10 -114,3 -150,-20 -37,-25 -59,-58 -66,-103l-34 -187 0 -3c-22,60 -46,124 -71,193 -183,491 -338,808 -462,951 -89,96 -182,143 -278,143 -24,0 -50,-2 -74,-9 -201,-64 -314,-241 -336,-528 -11,-130 -16,-251 -16,-364 0,-211 15,-451 43,-718l-84 0c-158,0 -393,-10 -707,-28l-87 273c-157,473 -354,879 -596,1219 -60,85 -131,165 -214,241 -82,75 -171,138 -269,186 -98,49 -198,74 -302,74zm8117 -3155c109,-309 165,-530 165,-662 0,-42 -9,-70 -25,-84l-9 -3c-36,8 -82,76 -141,204 -48,119 -71,230 -71,334 0,87 26,157 81,211zm2714 -863c2,-1 4,-1 6,-1 2,0 5,0 7,1 2,1 4,2 6,3 1,1 3,2 3,3 7,7 9,16 9,28 0,11 -2,21 -3,30 -7,35 -20,66 -39,94 -26,38 -59,66 -101,86 -26,11 -54,20 -83,25 1,0 2,1 2,3 0,7 -6,36 -16,87 -11,50 -29,109 -56,176 -27,68 -64,129 -113,185 -49,56 -113,93 -190,110 -30,7 -58,10 -86,10 -98,0 -181,-36 -248,-108 -52,-60 -86,-133 -99,-219 -5,-29 -8,-58 -8,-86 0,-59 10,-120 30,-182 25,-77 55,-137 91,-179 36,-40 70,-69 105,-86 33,-16 61,-25 83,-27 -21,-15 -45,-37 -72,-68 -27,-31 -47,-68 -59,-114 -5,-16 -7,-33 -7,-51 0,-33 7,-69 22,-108 20,-49 48,-86 81,-109 34,-23 67,-38 100,-43 25,-4 47,-6 66,-6l15 0c90,7 153,42 186,103 19,42 30,86 30,130 0,30 -5,62 -15,94 -1,3 -3,8 -7,14 -4,6 -9,11 -15,15 -5,5 -12,7 -18,7 -2,0 -5,-2 -8,-6 -4,-2 -6,-9 -6,-18 0,-1 1,-3 2,-6l2 -21c3,-17 4,-35 4,-53 0,-13 -1,-26 -2,-39 -5,-42 -20,-76 -43,-103 -27,-31 -60,-46 -100,-46 -40,1 -73,19 -101,52 -27,37 -41,79 -41,128 0,23 3,48 9,73 16,56 48,99 94,130 15,10 22,22 22,39 0,4 0,8 -1,11 -4,17 -14,28 -30,34 -22,6 -52,23 -89,52 -39,28 -72,74 -102,138 -29,59 -44,140 -44,243l0 23c5,111 35,193 92,246 35,31 75,46 121,46l13 0c79,-8 150,-54 212,-138 63,-85 105,-194 127,-327 -13,1 -26,2 -38,3l-19 1c-53,0 -101,11 -144,32 -25,16 -41,37 -48,64 -2,6 -4,12 -8,17 -4,5 -9,8 -15,9l-3 0c-3,0 -6,0 -10,-2 -3,-2 -6,-6 -10,-12 -4,-8 -6,-18 -6,-28 0,-6 0,-14 2,-25 2,-11 6,-24 12,-39 23,-48 57,-82 101,-99 45,-17 89,-26 133,-26 81,-4 141,-14 181,-29 39,-15 66,-32 80,-51 14,-18 22,-35 25,-50l2 -5c7,-21 16,-32 27,-35zm-1473 -61c-104,0 -200,-44 -287,-133 -89,-120 -134,-296 -134,-529l0 -92c0,-52 2,-103 7,-153 -46,120 -121,210 -225,271 -39,18 -79,27 -118,27 -42,0 -83,-9 -124,-27 -88,-45 -150,-117 -188,-217 -122,290 -233,494 -335,613 -89,93 -188,140 -299,140 -116,0 -214,-52 -292,-156 -50,-73 -84,-154 -102,-243 -58,136 -129,272 -211,409 -65,114 -153,199 -265,254 -68,28 -136,42 -202,42 -108,0 -208,-36 -300,-103 -141,-118 -225,-279 -252,-482 -9,-52 -15,-115 -20,-190 -41,93 -87,187 -136,280 -46,89 -97,170 -153,247 -57,75 -130,128 -221,159 -33,10 -66,16 -100,16 -284,0 -427,-256 -427,-768l-10 25c-76,220 -156,387 -239,503 -89,108 -190,162 -303,162 -116,0 -210,-56 -280,-167 -65,-121 -96,-302 -96,-542l0 -3c-68,135 -130,235 -186,299 -91,98 -216,169 -352,134 -201,-65 -314,-241 -336,-529 -11,-129 -16,-250 -16,-364 0,-211 15,-451 43,-718 -265,0 -526,-12 -791,-27l-87 272c-157,473 -355,880 -596,1219 -121,173 -293,333 -483,428 -98,49 -198,73 -302,73 -27,0 -55,-2 -84,-6 -168,-32 -297,-108 -386,-227 -121,-160 -181,-341 -181,-545 0,-263 98,-529 296,-799 54,-70 114,-136 180,-195 299,-280 742,-420 1328,-420l87 0 63 3c58,-180 113,-360 165,-538 77,-267 157,-526 242,-777 59,-167 129,-324 213,-470 114,-200 272,-301 473,-301 42,0 97,8 168,22 69,14 131,62 188,143 43,77 65,212 65,404 0,210 -29,578 -88,1106l-40 417c67,-10 133,-22 200,-37 45,-10 75,-9 117,13 49,24 39,78 17,118 -26,35 -143,66 -352,93 -17,182 -31,364 -40,547 -19,179 -53,649 58,778 11,12 25,18 40,18 55,0 115,-64 181,-192 84,-161 181,-383 290,-666 22,-94 49,-190 80,-289 6,-21 18,-39 34,-56 41,-42 100,-62 175,-62 71,0 120,14 147,42 29,27 43,55 43,82 0,27 -5,51 -13,71 -129,500 -193,880 -193,1141 0,158 28,237 85,237 85,-15 166,-125 245,-332 123,-262 240,-587 349,-977 46,-180 81,-285 107,-314 41,-54 99,-81 171,-81 58,0 108,20 150,59 24,27 37,54 37,81 -2,27 -8,61 -19,103 -62,230 -113,503 -152,818 -28,163 -41,301 -41,413 0,93 14,183 44,270 12,39 36,60 71,60 87,0 252,-250 496,-746l37 -94 7 -17 0 -1 0 -286c0,-222 45,-457 75,-649 -117,-10 -254,-42 -410,-93 -463,-146 -832,-408 -1106,-787 -152,-213 -230,-443 -230,-688 0,-180 45,-320 132,-419 88,-100 190,-149 308,-149 117,0 232,49 344,145 59,58 109,125 150,200 117,-186 268,-279 452,-279 59,0 123,16 195,48 73,32 128,89 168,171 23,49 34,104 34,167 0,66 -13,141 -40,225 -76,226 -197,422 -367,589 -19,20 -47,30 -83,30 -25,-3 -43,-14 -57,-33 -7,-12 -10,-23 -10,-34 0,-19 13,-46 37,-76 111,-126 201,-274 270,-443 33,-88 50,-166 50,-232 0,-73 -20,-129 -61,-168 -42,-39 -89,-58 -142,-58 -161,0 -291,128 -394,382 -15,30 -41,43 -76,43 -35,0 -64,-15 -83,-46 -9,-14 -15,-27 -17,-43 -35,-131 -84,-227 -147,-287 -62,-62 -131,-92 -206,-92 -106,0 -183,64 -227,193 -13,37 -20,81 -20,132 0,42 5,88 13,136 41,229 141,436 303,621 160,185 352,336 575,452 224,117 448,188 676,214 81,-449 210,-817 386,-1100 124,-189 266,-294 427,-319 39,-7 79,-10 119,-10 49,0 109,6 180,18 71,12 141,51 210,115 64,73 97,157 97,252l0 83c0,51 -15,125 -43,220 -151,525 -477,832 -977,920 -18,98 -34,204 -50,319 -36,289 -53,535 -53,740 0,326 44,552 131,678 35,45 79,69 131,69 57,0 119,-31 184,-90 131,-142 253,-357 367,-648 7,-17 14,-34 20,-51 4,-331 56,-683 159,-1055 26,-113 59,-191 96,-237 38,-37 81,-56 131,-56 27,0 56,5 84,16 96,37 144,85 144,143 0,10 -3,27 -10,53 -95,362 -160,671 -196,929 -25,153 -38,294 -38,423 0,89 15,176 44,261 10,39 34,59 69,59 29,0 55,-11 78,-34 124,-137 269,-388 433,-753l18 -40c6,-124 30,-258 73,-403 19,-78 52,-168 100,-267 75,-164 203,-245 383,-245 34,0 84,5 153,16 69,12 136,49 202,114 30,-106 91,-159 184,-159 61,0 118,22 172,66 27,25 41,54 41,87 -2,33 -7,64 -16,90 -81,267 -148,564 -200,892 -24,155 -37,296 -37,423 0,91 15,178 44,261 10,41 36,62 77,62 24,-2 46,-14 69,-34 81,-91 153,-196 215,-314l150 -308 156 -360c23,-63 39,-101 50,-115 15,-23 33,-35 56,-35 37,0 55,32 55,94 0,49 -43,182 -131,397 -144,351 -275,604 -392,759 -83,108 -181,161 -293,161zm-710 -847c13,0 28,-8 47,-23 18,-14 34,-34 46,-59 60,-97 112,-204 156,-320 85,-215 152,-396 200,-544 -33,-70 -92,-106 -175,-106 -67,0 -129,48 -190,143 -63,108 -107,233 -134,374 -20,80 -31,168 -31,261 0,59 4,121 14,181 9,62 32,93 67,93zm-875 -1569c-55,0 -103,-19 -142,-59 -40,-39 -60,-87 -60,-143 0,-56 20,-104 60,-144 39,-41 87,-61 142,-61 57,0 106,20 146,61 40,40 61,88 61,144 0,56 -21,104 -61,143 -40,40 -89,59 -146,59zm-1228 312c100,-15 199,-49 296,-102 166,-89 303,-262 413,-519 54,-124 81,-250 81,-379 0,-139 -51,-209 -153,-209 -71,0 -143,42 -213,126 -114,148 -196,303 -247,462 -69,191 -129,397 -177,621zm-5592 1985c613,0 1072,-1285 1221,-1732l6 -15c0,-2 -18,-3 -53,-3 -461,0 -816,87 -1066,261 -311,220 -486,504 -523,855 -16,102 1,213 24,312 22,86 77,168 166,244 71,52 145,78 225,78zm2265 -1900l31 -298c60,-537 91,-936 91,-1197l0 -193c-3,-122 -34,-182 -97,-182 -61,0 -124,61 -190,185 -104,194 -185,381 -240,564 -100,294 -195,588 -284,883 -6,26 -26,95 -63,208l141 9c205,16 406,21 611,21zm3398 3695c13,0 28,-7 47,-22 18,-15 34,-34 46,-59 60,-97 112,-204 156,-320 85,-215 152,-397 200,-544 -33,-70 -92,-106 -175,-106 -67,0 -129,47 -190,143 -63,108 -107,232 -134,373 -20,81 -31,168 -31,262 0,59 4,121 14,181 9,61 32,92 67,92zm-6603 2153c145,0 290,-71 436,-214 280,-282 542,-787 785,-1518l6 -14c0,-2 -18,-3 -53,-3 -460,0 -816,86 -1066,260 -311,220 -486,504 -523,856 -4,26 -7,55 -7,87 0,63 11,139 31,225 22,86 77,167 166,244 71,52 145,77 225,77zm2266 -1899l30 -298c60,-537 91,-936 91,-1197l0 -193c-2,-122 -34,-183 -97,-183 -61,0 -123,62 -191,186 -103,193 -183,381 -239,563 -100,294 -194,588 -284,883 -6,27 -27,96 -63,208l141 10c178,13 359,21 542,21l70 0z"/>
 </g>
</svg>
