<?xml version="1.0" encoding="UTF-8"?>
<!DOCTYPE svg PUBLIC "-//W3C//DTD SVG 1.1//EN" "http://www.w3.org/Graphics/SVG/1.1/DTD/svg11.dtd">
<!-- Creator: CorelDRAW X7 -->
<svg xmlns="http://www.w3.org/2000/svg" xml:space="preserve" width="100mm" height="100mm" version="1.1" style="shape-rendering:geometricPrecision; text-rendering:geometricPrecision; image-rendering:optimizeQuality; fill-rule:evenodd; clip-rule:evenodd"
viewBox="0 0 1486 1486"
 xmlns:xlink="http://www.w3.org/1999/xlink">
 <defs>
  <style type="text/css">
   <![CDATA[
    .fil0 {fill:#9E0050}
   ]]>
  </style>
 </defs>
 <g id="Layer_x0020_1">
  <metadata id="CorelCorpID_0Corel-Layer"/>
  <path class="fil0" d="M743 0c410,0 743,333 743,743 0,410 -333,743 -743,743 -410,0 -743,-333 -743,-743 0,-410 333,-743 743,-743zm-420 866c1,-6 125,-353 125,-353 17,-1 48,35 51,64 26,0 77,-8 106,-11 81,-8 31,2 90,-28 44,-23 90,-21 136,-6l47 20c31,12 68,23 102,30 6,-12 7,-17 15,-28 8,-10 12,-12 24,-18l74 172c13,29 24,57 37,86 4,8 36,79 37,87 -21,3 -40,2 -59,-9 -31,-18 -9,-26 -57,1 -17,10 -13,3 -15,13 -6,28 -9,56 -57,65 -23,4 -11,11 -30,24 -21,16 -34,18 -64,18 -5,21 -35,41 -67,41 -22,0 -11,-5 -31,4 -33,17 -85,1 -113,-17 -50,-31 -97,-65 -145,-98 -25,-17 -56,-40 -81,-56 -15,-9 -28,-20 -43,-27 -23,20 -40,36 -82,26zm913 26c-12,0 -15,-12 -19,-21 -4,-9 -9,-19 -11,-29l40 -19c35,-15 73,-27 104,-50 6,-4 12,-9 18,-13 9,17 22,52 5,70 -7,8 -132,62 -137,62zm-1131 -84c0,-37 8,-31 9,-52 6,4 11,8 18,12 37,23 66,29 106,44l44 17c0,4 -13,52 -24,52 -8,0 -135,-45 -143,-53 -4,-3 -10,-13 -10,-20zm963 -296c18,-10 132,-60 147,-60 31,0 41,38 53,65l58 137c7,15 21,39 16,59 -6,20 -24,27 -44,35 -18,8 -35,16 -54,24 -10,4 -18,7 -28,11 -8,4 -19,10 -29,10 -1,-6 -24,-59 -29,-70l-87 -202c-1,-3 -2,-6 -3,-9zm-771 268c-11,-1 -35,-11 -45,-14 -26,-10 -93,-30 -106,-45 -12,-13 -10,-32 -4,-51 17,-56 45,-125 65,-180 22,-66 44,-55 119,-26l74 27c-4,15 -78,216 -90,252 -4,12 -10,24 -13,37zm194 -166l-69 192 41 26c55,37 105,74 159,110 27,18 53,37 81,53 7,4 16,7 24,10 12,3 18,3 33,3 -2,-9 -37,-34 -45,-43 -9,-8 -16,-13 -24,-21 -4,-4 -7,-7 -11,-11 -8,-7 -10,-7 -10,-17 0,-14 12,-16 23,-16 9,0 14,8 20,13l64 57c18,16 35,35 56,25 6,-2 16,-11 16,-19 0,-5 -3,-5 -11,-12l-40 -35c-9,-8 -49,-42 -49,-50 0,-15 18,-32 38,-11 6,6 9,8 15,13l29 27c6,6 10,8 15,13 29,29 45,45 72,30 10,-5 9,-7 13,-16 -6,-4 -10,-9 -16,-13 -6,-5 -10,-9 -16,-14l-63 -56c-10,-10 -28,-19 -28,-34 0,-14 18,-25 34,-11l112 98c8,7 13,14 25,9 47,-19 -13,-65 -32,-80l-62 -48c-37,-27 -76,-54 -111,-81 -6,-5 -10,-9 -16,-12 -25,11 -42,11 -50,19 -5,4 -7,7 -12,11 -28,21 -86,39 -115,12 -37,-35 -14,-80 13,-113 7,-8 13,-13 15,-19 -29,0 -86,11 -118,11zm108 80c0,8 7,15 14,17 16,6 52,-7 65,-22 6,-6 6,-11 15,-14 11,-5 24,-3 46,-14 29,-14 22,-14 56,13l64 48c38,28 137,95 158,127 17,-9 34,-19 51,-28l-75 -171c-20,-42 2,-24 -62,-43 -33,-9 -74,-23 -105,-37 -74,-33 -130,1 -181,52l-19 21c-9,10 -27,33 -27,51z"/>
 </g>
</svg>
