<?xml version="1.0" encoding="UTF-8"?>
<!DOCTYPE svg PUBLIC "-//W3C//DTD SVG 1.1//EN" "http://www.w3.org/Graphics/SVG/1.1/DTD/svg11.dtd">
<!-- Creator: CorelDRAW X7 -->
<svg xmlns="http://www.w3.org/2000/svg" xml:space="preserve" width="100mm" height="100mm" version="1.1" style="shape-rendering:geometricPrecision; text-rendering:geometricPrecision; image-rendering:optimizeQuality; fill-rule:evenodd; clip-rule:evenodd"
viewBox="0 0 496 496"
 xmlns:xlink="http://www.w3.org/1999/xlink">
 <defs>
  <style type="text/css">
   <![CDATA[
    .fil0 {fill:#9E0050}
   ]]>
  </style>
 </defs>
 <g id="Layer_x0020_1">
  <metadata id="CorelCorpID_0Corel-Layer"/>
  <path class="fil0" d="M248 0c137,0 248,111 248,248 0,137 -111,248 -248,248 -137,0 -248,-111 -248,-248 0,-137 111,-248 248,-248zm89 190c-1,0 -2,1 -4,1 -14,6 -54,6 -69,1 -1,-1 -2,-2 -3,-2 0,0 0,0 0,-1 5,-2 22,-11 28,-15 1,0 9,-5 10,-5l7 4c1,0 1,0 2,1 2,1 3,2 5,3 1,0 1,0 2,1l21 12c1,0 0,0 1,0zm-171 76l0 -1 -1 1 1 0 8 19c3,7 6,15 8,22 1,5 3,10 4,15l3 17c0,3 0,6 0,9 1,12 1,23 -2,36 -1,2 -2,6 -2,8 2,0 18,4 21,4l1 -9c0,-4 0,-8 0,-11 0,-3 0,-4 -1,-5 0,-2 0,-4 0,-5 -1,-12 -1,-15 -4,-28 -1,-7 -3,-12 -5,-18 0,-1 -1,-2 -1,-3 -1,-2 -1,-3 -2,-4 0,-3 -1,-5 -3,-8l-3 -7c-4,-7 -8,-14 -13,-20 -1,-2 -7,-11 -9,-12zm0 18l0 -5c0,-1 0,-1 -1,-1l0 3 -4 50c0,2 -1,6 -1,8 0,3 0,7 -1,9 -10,0 -23,-9 -27,-20 -4,-9 -2,-17 -2,-28 0,-6 0,-11 0,-16l0 -15c1,-5 2,-9 3,-13 1,-2 2,-4 3,-5 5,-12 10,-19 21,-26 4,-3 10,-7 15,-9 4,-2 7,-3 11,-5 14,-3 26,0 37,9l13 10c12,10 22,15 39,16 9,1 20,2 29,0 16,-4 22,-7 34,-14 3,-2 6,-4 9,-7 5,-4 11,-12 13,-18 4,-7 6,-16 6,-26 -1,1 0,0 -1,2l-3 8c-1,3 -3,7 -4,9l-6 8c-11,13 -29,22 -49,22 -10,0 -26,-4 -34,-8 -3,-2 -7,-3 -9,-5 -11,-8 -21,-21 -21,-36 -2,1 -2,1 -3,2l-8 6c-6,3 -18,9 -24,12 -2,1 -4,2 -6,3 -3,1 -5,1 -7,2 -17,8 -28,10 -43,22 -14,12 -23,29 -24,48 0,3 -1,6 -1,9 0,3 0,6 0,8 -1,3 -1,6 -1,9 -1,12 -4,27 -7,39 -1,2 -2,5 -2,8 4,0 54,10 58,10 0,-6 0,-12 0,-19 0,-3 -1,-6 -1,-9 0,-3 0,-7 0,-10 0,-3 0,-5 0,-9 0,-3 -1,-6 -1,-9 0,-7 0,-13 0,-19zm134 -211l1 0c6,0 12,3 16,8 4,4 7,11 7,17 0,3 -2,5 -4,5 -9,0 -4,-10 -12,-17 -3,-2 -5,-2 -9,-2 -5,0 -11,5 -11,11 0,15 7,11 14,18 1,1 2,2 3,4 1,4 1,14 1,19 6,0 14,3 18,6 9,7 8,13 17,25 0,1 1,3 2,4 7,7 8,6 14,9 -1,2 -1,8 -7,18 -3,5 -8,9 -13,12 -22,15 -55,15 -77,0 -18,-12 -18,-27 -20,-30 2,-1 3,-1 5,-2 7,-3 11,-9 15,-16 2,-2 3,-5 5,-8 3,-8 8,-12 16,-15 3,-2 11,-3 15,-3 -1,-2 -1,-6 -1,-8 0,-3 0,-4 0,-7 -12,-7 -17,-9 -17,-24 0,-8 2,-13 6,-17 1,-1 2,-2 3,-3 4,-3 9,-4 13,-4z"/>
 </g>
</svg>
